<?xml version="1.0" standalone="no"?>
<!DOCTYPE svg PUBLIC "-//W3C//DTD SVG 20010904//EN"
 "http://www.w3.org/TR/2001/REC-SVG-20010904/DTD/svg10.dtd">
<svg version="1.0" xmlns="http://www.w3.org/2000/svg"
 width="4008.000000pt" height="4008.000000pt" viewBox="0 0 4008.000000 4008.000000"
 preserveAspectRatio="xMidYMid meet">
<metadata>
Created by potrace 1.14, written by Peter Selinger 2001-2017
</metadata>
<g transform="translate(0.000000,4008.000000) scale(0.100000,-0.100000)"
fill="#000000" stroke="none">
<path d="M29740 38863 c-1347 -74 -2487 -384 -3739 -1018 -698 -354 -1365
-790 -1943 -1272 -92 -77 -832 -722 -1644 -1434 -1540 -1349 -1550 -1358
-1704 -1467 -52 -37 -138 -107 -190 -157 -52 -49 -151 -137 -220 -195 -69 -57
-149 -127 -178 -154 l-54 -50 -76 79 c-43 44 -173 181 -289 304 -185 195 -222
229 -290 267 -43 25 -107 66 -143 93 -36 26 -738 630 -1560 1342 -1533 1326
-1650 1426 -1900 1616 -1548 1174 -3355 1842 -5250 1943 -309 16 -1730 6
-1900 -13 -712 -83 -1433 -280 -2165 -592 -1505 -642 -2869 -1663 -3949 -2955
-797 -953 -1427 -2061 -1856 -3264 -342 -959 -562 -2019 -644 -3101 -52 -686
-46 -1564 14 -2175 82 -825 214 -1491 466 -2345 149 -505 194 -654 279 -910
1253 -3777 3983 -7981 8088 -12452 2463 -2683 5425 -5460 8577 -8038 616 -504
1732 -1386 1877 -1483 146 -99 354 -181 548 -218 199 -38 496 -17 691 50 206
70 288 118 619 367 143 108 451 334 685 504 1013 735 1289 937 1690 1233 3557
2631 6356 5123 8711 7753 3502 3910 5842 7977 6979 12124 589 2149 863 4385
801 6535 -13 419 -13 427 -46 590 -224 1102 -612 2159 -1147 3124 -400 722
-894 1406 -1467 2036 -164 179 -539 551 -726 719 -790 711 -1668 1307 -2600
1766 -871 428 -1731 712 -2455 810 -209 28 -1569 56 -1890 38z m-8706 -6773
c492 -516 886 -947 1776 -1940 754 -842 1251 -1390 1584 -1750 109 -117 -189
179 -437 435 -630 649 -1064 1124 -2297 2510 -382 429 -775 870 -874 980 -222
248 -115 146 248 -235z m-8113 -2544 c625 -1266 879 -1771 894 -1777 11 -4
895 -135 1965 -290 1070 -155 1947 -283 1950 -286 2 -2 -18 -25 -45 -52 -1591
-1547 -2795 -2725 -2795 -2734 0 -7 151 -887 334 -1957 184 -1070 333 -1947
331 -1948 -2 -2 -792 411 -1755 917 -964 507 -1757 921 -1763 921 -7 0 -799
-414 -1761 -920 -963 -506 -1752 -917 -1755 -915 -2 3 145 879 328 1948 183
1068 333 1947 334 1953 1 7 -639 636 -1422 1400 -783 763 -1420 1389 -1415
1391 5 1 882 128 1949 283 1067 154 1949 283 1960 285 16 3 217 402 899 1785
484 979 883 1777 887 1773 4 -4 400 -804 880 -1777z"/>
</g>
</svg>
